<svg id="visual" viewBox="0 0 960 540" width="960" height="540" xmlns="http://www.w3.org/2000/svg" xmlns:xlink="http://www.w3.org/1999/xlink" version="1.1"><rect x="0" y="0" width="960" height="540" fill="#eaf6ff"></rect><path d="M0 422L32 418.3C64 414.7 128 407.3 192 409.8C256 412.3 320 424.7 384 432C448 439.3 512 441.7 576 430.5C640 419.3 704 394.7 768 391.5C832 388.3 896 406.7 928 415.8L960 425L960 541L928 541C896 541 832 541 768 541C704 541 640 541 576 541C512 541 448 541 384 541C320 541 256 541 192 541C128 541 64 541 32 541L0 541Z" fill="#007259"></path><path d="M0 412L32 422C64 432 128 452 192 448.3C256 444.7 320 417.3 384 415.8C448 414.3 512 438.7 576 446.2C640 453.7 704 444.3 768 434.5C832 424.7 896 414.3 928 409.2L960 404L960 541L928 541C896 541 832 541 768 541C704 541 640 541 576 541C512 541 448 541 384 541C320 541 256 541 192 541C128 541 64 541 32 541L0 541Z" fill="#008b6d"></path><path d="M0 469L32 468.3C64 467.7 128 466.3 192 468.3C256 470.3 320 475.7 384 475.5C448 475.3 512 469.7 576 460.3C640 451 704 438 768 435C832 432 896 439 928 442.5L960 446L960 541L928 541C896 541 832 541 768 541C704 541 640 541 576 541C512 541 448 541 384 541C320 541 256 541 192 541C128 541 64 541 32 541L0 541Z" fill="#00a581"></path><path d="M0 502L32 504.7C64 507.3 128 512.7 192 509.7C256 506.7 320 495.3 384 490C448 484.7 512 485.3 576 483.2C640 481 704 476 768 475.7C832 475.3 896 479.7 928 481.8L960 484L960 541L928 541C896 541 832 541 768 541C704 541 640 541 576 541C512 541 448 541 384 541C320 541 256 541 192 541C128 541 64 541 32 541L0 541Z" fill="#00bf96"></path></svg>