<svg id="visual" viewBox="0 0 1920 1080" width="1920" height="1080" xmlns="http://www.w3.org/2000/svg" xmlns:xlink="http://www.w3.org/1999/xlink" version="1.1"><rect x="0" y="0" width="1920" height="1080" fill="#f0f8ff"></rect><path d="M0 845L64 837.8C128 830.7 256 816.3 384 821.3C512 826.3 640 850.7 768 865C896 879.3 1024 883.7 1152 861.3C1280 839 1408 790 1536 783.8C1664 777.7 1792 814.3 1856 832.7L1920 851L1920 1081L1856 1081C1792 1081 1664 1081 1536 1081C1408 1081 1280 1081 1152 1081C1024 1081 896 1081 768 1081C640 1081 512 1081 384 1081C256 1081 128 1081 64 1081L0 1081Z" fill="#007259"></path><path d="M0 824L64 844.2C128 864.3 256 904.7 384 897.5C512 890.3 640 835.7 768 832.7C896 829.7 1024 878.3 1152 893.3C1280 908.3 1408 889.7 1536 869.8C1664 850 1792 829 1856 818.5L1920 808L1920 1081L1856 1081C1792 1081 1664 1081 1536 1081C1408 1081 1280 1081 1152 1081C1024 1081 896 1081 768 1081C640 1081 512 1081 384 1081C256 1081 128 1081 64 1081L0 1081Z" fill="#008b6d"></path><path d="M0 939L64 937.7C128 936.3 256 933.7 384 937.5C512 941.3 640 951.7 768 951.3C896 951 1024 940 1152 921.5C1280 903 1408 877 1536 870.8C1664 864.7 1792 878.3 1856 885.2L1920 892L1920 1081L1856 1081C1792 1081 1664 1081 1536 1081C1408 1081 1280 1081 1152 1081C1024 1081 896 1081 768 1081C640 1081 512 1081 384 1081C256 1081 128 1081 64 1081L0 1081Z" fill="#00a581"></path><path d="M0 1006L64 1011.3C128 1016.7 256 1027.3 384 1021C512 1014.7 640 991.3 768 980.5C896 969.7 1024 971.3 1152 967.2C1280 963 1408 953 1536 952.3C1664 951.7 1792 960.3 1856 964.7L1920 969L1920 1081L1856 1081C1792 1081 1664 1081 1536 1081C1408 1081 1280 1081 1152 1081C1024 1081 896 1081 768 1081C640 1081 512 1081 384 1081C256 1081 128 1081 64 1081L0 1081Z" fill="#00bf96"></path></svg>