<svg id="visual" viewBox="0 0 1920 1080" width="1920" height="1080" xmlns="http://www.w3.org/2000/svg" xmlns:xlink="http://www.w3.org/1999/xlink" version="1.1"><g stroke-width="1" stroke-linejoin="bevel"><path d="M858.3 502L789.3 358L699 433Z" fill="#f8fffc" stroke="#f8fffc"></path><path d="M699 433L677 613L858.3 502Z" fill="#fbfffd" stroke="#fbfffd"></path><path d="M858.3 502L993.7 394L789.3 358Z" fill="#ffffff" stroke="#ffffff"></path><path d="M993.7 394L867.3 214L789.3 358Z" fill="#edfff7" stroke="#edfff7"></path><path d="M638 195L500.7 386L699 433Z" fill="#f8fffc" stroke="#f8fffc"></path><path d="M677 613L822.3 733L858.3 502Z" fill="#dffff1" stroke="#dffff1"></path><path d="M858.3 502L1112.7 484L993.7 394Z" fill="#fbfffd" stroke="#fbfffd"></path><path d="M708 716L822.3 733L677 613Z" fill="#e9fff5" stroke="#e9fff5"></path><path d="M638 195L699 433L789.3 358Z" fill="#f8fffc" stroke="#f8fffc"></path><path d="M699 433L441.7 487L677 613Z" fill="#ffffff" stroke="#ffffff"></path><path d="M433.7 789L590 877L708 716Z" fill="#dffff1" stroke="#dffff1"></path><path d="M867.3 214L638 195L789.3 358Z" fill="#dbffef" stroke="#dbffef"></path><path d="M1099.7 711L1112.7 484L858.3 502Z" fill="#dbffef" stroke="#dbffef"></path><path d="M993.7 394L1008.7 124L867.3 214Z" fill="#dbffef" stroke="#dbffef"></path><path d="M500.7 386L441.7 487L699 433Z" fill="#e2fff2" stroke="#e2fff2"></path><path d="M638 195L479.7 258L500.7 386Z" fill="#edfff7" stroke="#edfff7"></path><path d="M500.7 386L251.3 507L441.7 487Z" fill="#f1fff9" stroke="#f1fff9"></path><path d="M1257 325L1008.7 124L993.7 394Z" fill="#f8fffc" stroke="#f8fffc"></path><path d="M867.3 214L666 0L638 195Z" fill="#dffff1" stroke="#dffff1"></path><path d="M822.3 733L1099.7 711L858.3 502Z" fill="#fbfffd" stroke="#fbfffd"></path><path d="M708 716L784.3 903L822.3 733Z" fill="#fbfffd" stroke="#fbfffd"></path><path d="M822.3 733L980.7 880L1099.7 711Z" fill="#f8fffc" stroke="#f8fffc"></path><path d="M590 877L784.3 903L708 716Z" fill="#e2fff2" stroke="#e2fff2"></path><path d="M941.3 0L666 0L867.3 214Z" fill="#f8fffc" stroke="#f8fffc"></path><path d="M638 195L373.7 0L479.7 258Z" fill="#ffffff" stroke="#ffffff"></path><path d="M433.7 789L708 716L677 613Z" fill="#edfff7" stroke="#edfff7"></path><path d="M1008.7 124L941.3 0L867.3 214Z" fill="#edfff7" stroke="#edfff7"></path><path d="M784.3 903L980.7 880L822.3 733Z" fill="#dffff1" stroke="#dffff1"></path><path d="M1291 472L1257 325L1112.7 484Z" fill="#fbfffd" stroke="#fbfffd"></path><path d="M1112.7 484L1257 325L993.7 394Z" fill="#edfff7" stroke="#edfff7"></path><path d="M1008.7 124L1123.7 0L941.3 0Z" fill="#f4fffa" stroke="#f4fffa"></path><path d="M441.7 487L433.7 789L677 613Z" fill="#fbfffd" stroke="#fbfffd"></path><path d="M1298 715L1291 472L1112.7 484Z" fill="#e6fff4" stroke="#e6fff4"></path><path d="M1298 715L1112.7 484L1099.7 711Z" fill="#e2fff2" stroke="#e2fff2"></path><path d="M479.7 258L251.3 507L500.7 386Z" fill="#ffffff" stroke="#ffffff"></path><path d="M441.7 487L251.3 507L433.7 789Z" fill="#f1fff9" stroke="#f1fff9"></path><path d="M146.3 308L251.3 507L479.7 258Z" fill="#e6fff4" stroke="#e6fff4"></path><path d="M1317 186L1123.7 0L1008.7 124Z" fill="#e9fff5" stroke="#e9fff5"></path><path d="M1204 945L1298 715L1099.7 711Z" fill="#dffff1" stroke="#dffff1"></path><path d="M1257 325L1317 186L1008.7 124Z" fill="#e9fff5" stroke="#e9fff5"></path><path d="M1442.3 209L1317 186L1257 325Z" fill="#fbfffd" stroke="#fbfffd"></path><path d="M1442.3 209L1257 325L1291 472Z" fill="#f8fffc" stroke="#f8fffc"></path><path d="M666 0L373.7 0L638 195Z" fill="#ffffff" stroke="#ffffff"></path><path d="M240.3 865L353.7 885L433.7 789Z" fill="#ffffff" stroke="#ffffff"></path><path d="M433.7 789L353.7 885L590 877Z" fill="#dffff1" stroke="#dffff1"></path><path d="M572 1080L871.3 1080L784.3 903Z" fill="#edfff7" stroke="#edfff7"></path><path d="M784.3 903L871.3 1080L980.7 880Z" fill="#fbfffd" stroke="#fbfffd"></path><path d="M980.7 880L1204 945L1099.7 711Z" fill="#fbfffd" stroke="#fbfffd"></path><path d="M572 1080L784.3 903L590 877Z" fill="#edfff7" stroke="#edfff7"></path><path d="M1059.7 1080L1204 945L980.7 880Z" fill="#e2fff2" stroke="#e2fff2"></path><path d="M1445.3 975L1409.3 646L1298 715Z" fill="#dffff1" stroke="#dffff1"></path><path d="M1298 715L1409.3 646L1291 472Z" fill="#f1fff9" stroke="#f1fff9"></path><path d="M178.3 183L146.3 308L479.7 258Z" fill="#dffff1" stroke="#dffff1"></path><path d="M251.3 507L174.3 760L433.7 789Z" fill="#dffff1" stroke="#dffff1"></path><path d="M373.7 0L178.3 183L479.7 258Z" fill="#edfff7" stroke="#edfff7"></path><path d="M353.7 885L572 1080L590 877Z" fill="#e2fff2" stroke="#e2fff2"></path><path d="M0 651L174.3 760L251.3 507Z" fill="#e6fff4" stroke="#e6fff4"></path><path d="M353.7 885L354.7 1080L572 1080Z" fill="#e6fff4" stroke="#e6fff4"></path><path d="M174.3 760L240.3 865L433.7 789Z" fill="#fbfffd" stroke="#fbfffd"></path><path d="M871.3 1080L1059.7 1080L980.7 880Z" fill="#e2fff2" stroke="#e2fff2"></path><path d="M1576.3 287L1442.3 209L1291 472Z" fill="#e6fff4" stroke="#e6fff4"></path><path d="M1317 186L1357 0L1123.7 0Z" fill="#e2fff2" stroke="#e2fff2"></path><path d="M1621.7 785L1480.3 628L1409.3 646Z" fill="#dbffef" stroke="#dbffef"></path><path d="M1409.3 646L1480.3 628L1291 472Z" fill="#f1fff9" stroke="#f1fff9"></path><path d="M1442.3 209L1357 0L1317 186Z" fill="#edfff7" stroke="#edfff7"></path><path d="M170.3 1080L354.7 1080L240.3 865Z" fill="#dffff1" stroke="#dffff1"></path><path d="M240.3 865L354.7 1080L353.7 885Z" fill="#dbffef" stroke="#dbffef"></path><path d="M0 163L0 405L146.3 308Z" fill="#f8fffc" stroke="#f8fffc"></path><path d="M146.3 308L0 405L251.3 507Z" fill="#f1fff9" stroke="#f1fff9"></path><path d="M0 405L0 547L251.3 507Z" fill="#f1fff9" stroke="#f1fff9"></path><path d="M0 871L170.3 1080L240.3 865Z" fill="#e2fff2" stroke="#e2fff2"></path><path d="M178.3 183L0 163L146.3 308Z" fill="#e2fff2" stroke="#e2fff2"></path><path d="M373.7 0L124.3 0L178.3 183Z" fill="#f1fff9" stroke="#f1fff9"></path><path d="M1617.7 497L1576.3 287L1291 472Z" fill="#f8fffc" stroke="#f8fffc"></path><path d="M1442.3 209L1525.3 0L1357 0Z" fill="#ffffff" stroke="#ffffff"></path><path d="M0 547L0 651L251.3 507Z" fill="#fbfffd" stroke="#fbfffd"></path><path d="M1621.7 785L1617.7 497L1480.3 628Z" fill="#f4fffa" stroke="#f4fffa"></path><path d="M1480.3 628L1617.7 497L1291 472Z" fill="#ffffff" stroke="#ffffff"></path><path d="M124.3 0L0 163L178.3 183Z" fill="#dffff1" stroke="#dffff1"></path><path d="M1348 1080L1445.3 975L1204 945Z" fill="#e9fff5" stroke="#e9fff5"></path><path d="M1204 945L1445.3 975L1298 715Z" fill="#e6fff4" stroke="#e6fff4"></path><path d="M1059.7 1080L1348 1080L1204 945Z" fill="#dffff1" stroke="#dffff1"></path><path d="M1783.7 221L1525.3 0L1576.3 287Z" fill="#f1fff9" stroke="#f1fff9"></path><path d="M1576.3 287L1525.3 0L1442.3 209Z" fill="#dbffef" stroke="#dbffef"></path><path d="M0 871L240.3 865L174.3 760Z" fill="#edfff7" stroke="#edfff7"></path><path d="M1617.7 497L1663.7 322L1576.3 287Z" fill="#f4fffa" stroke="#f4fffa"></path><path d="M0 651L0 871L174.3 760Z" fill="#e6fff4" stroke="#e6fff4"></path><path d="M1738.7 830L1621.7 785L1652.7 1080Z" fill="#fbfffd" stroke="#fbfffd"></path><path d="M1445.3 975L1621.7 785L1409.3 646Z" fill="#dffff1" stroke="#dffff1"></path><path d="M1920 407L1783.7 221L1663.7 322Z" fill="#f4fffa" stroke="#f4fffa"></path><path d="M124.3 0L0 0L0 163Z" fill="#edfff7" stroke="#edfff7"></path><path d="M1348 1080L1455.3 1080L1445.3 975Z" fill="#dbffef" stroke="#dbffef"></path><path d="M0 871L0 1080L170.3 1080Z" fill="#f1fff9" stroke="#f1fff9"></path><path d="M1920 407L1663.7 322L1617.7 497Z" fill="#e2fff2" stroke="#e2fff2"></path><path d="M1663.7 322L1783.7 221L1576.3 287Z" fill="#f4fffa" stroke="#f4fffa"></path><path d="M1652.7 1080L1621.7 785L1445.3 975Z" fill="#edfff7" stroke="#edfff7"></path><path d="M1621.7 785L1738.7 830L1617.7 497Z" fill="#edfff7" stroke="#edfff7"></path><path d="M1455.3 1080L1652.7 1080L1445.3 975Z" fill="#e6fff4" stroke="#e6fff4"></path><path d="M1783.7 221L1787.7 0L1525.3 0Z" fill="#dffff1" stroke="#dffff1"></path><path d="M1920 497L1920 407L1617.7 497Z" fill="#edfff7" stroke="#edfff7"></path><path d="M1783.7 221L1920 155L1787.7 0Z" fill="#fbfffd" stroke="#fbfffd"></path><path d="M1920 497L1617.7 497L1920 756Z" fill="#f1fff9" stroke="#f1fff9"></path><path d="M1920 756L1617.7 497L1738.7 830Z" fill="#fbfffd" stroke="#fbfffd"></path><path d="M1920 407L1920 155L1783.7 221Z" fill="#dffff1" stroke="#dffff1"></path><path d="M1920 869L1920 756L1738.7 830Z" fill="#e9fff5" stroke="#e9fff5"></path><path d="M1920 1080L1920 869L1738.7 830Z" fill="#e6fff4" stroke="#e6fff4"></path><path d="M1920 155L1920 0L1787.7 0Z" fill="#f4fffa" stroke="#f4fffa"></path><path d="M1652.7 1080L1920 1080L1738.7 830Z" fill="#dbffef" stroke="#dbffef"></path></g></svg>